<svg width="25" height="24" viewBox="0 0 25 24" fill="none" xmlns="http://www.w3.org/2000/svg">
  <path
    d="M8.07857 16.5559C8.00777 16.5185 7.98239 16.4716 7.91472 16.4288C7.38161 16.0915 7.03019 15.5212 7.03019 14.875C7.03019 12.0031 9.52772 9.66667 12.5976 9.66667H14.1421C14.5639 9.66667 14.9132 9.33927 14.9405 8.91842L14.9448 8.85175C14.9747 8.39053 14.6087 8 14.1465 8H2.85351C2.39133 8 2.0253 8.39051 2.05518 8.85172L2.93377 22.4128C2.95517 22.7427 3.24728 23 3.60064 23H6.02994C6.70172 23 7.13403 22.1508 7.05211 21.484C7.03763 21.3662 7.03019 21.2464 7.03019 21.125C7.03019 20.6783 7.1981 20.2676 7.47796 19.9452C7.8272 19.5428 8.04007 18.9101 7.95267 18.3846C7.93182 18.2592 7.92099 18.1308 7.92099 18C7.92099 17.5733 8.03633 17.1714 8.23887 16.8196C8.29 16.7308 8.16915 16.6038 8.07857 16.5559Z"
    fill="#8B9099" />
  <path
    d="M7.99934 7C7.99983 7 8.00033 6.99984 8.00083 6.99984H14.3636C14.7151 6.99984 15 6.72465 15 6.38511C15 6.04556 14.7151 5.77037 14.3636 5.77037H9.17479L10.8902 3.22947H13.0909C13.4424 3.22947 13.7273 2.95428 13.7273 2.61473C13.7273 2.27519 13.4424 2 13.0909 2H10.5455C10.3304 2 10.1298 2.10486 10.0125 2.27887L7.6553 5.77037H1.63636C1.28487 5.77037 1 6.04556 1 6.38511C1 6.72465 1.28487 6.99984 1.63636 6.99984H7.99702C7.99785 6.99984 7.99867 7 7.99934 7Z"
    fill="#8B9099" />
  <path
    d="M8 14.4545C8 14.7558 8.28778 15 8.64286 15H22.3571C22.7122 15 23 14.7558 23 14.4545C23 12.5497 21.1735 11 18.9286 11H12.0714C9.82645 11 8 12.5497 8 14.4545Z"
    fill="#8B9099" />
  <path
    d="M10.2581 16C9.56318 16 9 16.6267 9 17.4C9 18.1733 9.56318 18.8 10.2581 18.8H20.7419C21.4368 18.8 22 18.1733 22 17.4C22 16.6267 21.4368 16 20.7419 16H10.2581Z"
    fill="#8B9099" />
  <path
    d="M22.3571 20H8.64286C8.28778 20 8 20.3357 8 20.75C8 21.9906 8.86518 23 9.92857 23H21.0714C22.1348 23 23 21.9906 23 20.75C23 20.3357 22.7122 20 22.3571 20Z"
    fill="#8B9099" />
</svg>
  