<svg width="25" height="24" viewBox="0 0 25 24" fill="none" xmlns="http://www.w3.org/2000/svg">
  <mask id="mask0_469_910" style="mask-type:alpha" maskUnits="userSpaceOnUse" x="0" y="0" width="25"
    height="24">
    <rect x="0.5" width="24" height="24" fill="#D9D9D9" />
  </mask>
  <g mask="url(#mask0_469_910)">
    <path
      d="M5.78571 19.7143H9.21429V12.8571H16.0714V19.7143H19.5V9.42857L12.6429 4.28571L5.78571 9.42857V19.7143ZM5.78571 22C5.15714 22 4.61924 21.7764 4.172 21.3291C3.724 20.8811 3.5 20.3429 3.5 19.7143V9.42857C3.5 9.06667 3.58114 8.72381 3.74343 8.4C3.90495 8.07619 4.12857 7.80952 4.41429 7.6L11.2714 2.45714C11.481 2.30476 11.7 2.19048 11.9286 2.11429C12.1571 2.0381 12.3952 2 12.6429 2C12.8905 2 13.1286 2.0381 13.3571 2.11429C13.5857 2.19048 13.8048 2.30476 14.0143 2.45714L20.8714 7.6C21.1571 7.80952 21.3811 8.07619 21.5434 8.4C21.705 8.72381 21.7857 9.06667 21.7857 9.42857V19.7143C21.7857 20.3429 21.5621 20.8811 21.1149 21.3291C20.6669 21.7764 20.1286 22 19.5 22H13.7857V15.1429H11.5V22H5.78571Z"
      fill="#8B9099" />
  </g>
</svg>
  