<svg width="25" height="24" viewBox="0 0 25 24" fill="none" xmlns="http://www.w3.org/2000/svg">
  <path
    d="M9.16671 19.4999H5.83337C5.61236 19.4999 5.4004 19.4121 5.24412 19.2558C5.08784 19.0996 5.00004 18.8876 5.00004 18.6666V15.3333C5.00004 15.1122 4.91224 14.9003 4.75596 14.744C4.59968 14.5877 4.38772 14.4999 4.16671 14.4999C3.94569 14.4999 3.73373 14.5877 3.57745 14.744C3.42117 14.9003 3.33337 15.1122 3.33337 15.3333V18.6666C3.33337 19.3296 3.59677 19.9655 4.06561 20.4344C4.53445 20.9032 5.17033 21.1666 5.83337 21.1666H9.16671C9.38772 21.1666 9.59968 21.0788 9.75596 20.9225C9.91224 20.7662 10 20.5543 10 20.3333C10 20.1122 9.91224 19.9003 9.75596 19.744C9.59968 19.5877 9.38772 19.4999 9.16671 19.4999ZM20.8334 14.4999C20.6124 14.4999 20.4004 14.5877 20.2441 14.744C20.0878 14.9003 20 15.1122 20 15.3333V18.6666C20 18.8876 19.9122 19.0996 19.756 19.2558C19.5997 19.4121 19.3877 19.4999 19.1667 19.4999H15.8334C15.6124 19.4999 15.4004 19.5877 15.2441 19.744C15.0878 19.9003 15 20.1122 15 20.3333C15 20.5543 15.0878 20.7662 15.2441 20.9225C15.4004 21.0788 15.6124 21.1666 15.8334 21.1666H19.1667C19.8298 21.1666 20.4656 20.9032 20.9345 20.4344C21.4033 19.9655 21.6667 19.3296 21.6667 18.6666V15.3333C21.6667 15.1122 21.5789 14.9003 21.4226 14.744C21.2664 14.5877 21.0544 14.4999 20.8334 14.4999ZM19.1667 2.83325H15.8334C15.6124 2.83325 15.4004 2.92105 15.2441 3.07733C15.0878 3.23361 15 3.44557 15 3.66659C15 3.8876 15.0878 4.09956 15.2441 4.25584C15.4004 4.41212 15.6124 4.49992 15.8334 4.49992H19.1667C19.3877 4.49992 19.5997 4.58772 19.756 4.744C19.9122 4.90028 20 5.11224 20 5.33325V8.66659C20 8.8876 20.0878 9.09956 20.2441 9.25584C20.4004 9.41212 20.6124 9.49992 20.8334 9.49992C21.0544 9.49992 21.2664 9.41212 21.4226 9.25584C21.5789 9.09956 21.6667 8.8876 21.6667 8.66659V5.33325C21.6667 4.67021 21.4033 4.03433 20.9345 3.56549C20.4656 3.09664 19.8298 2.83325 19.1667 2.83325ZM4.16671 9.49992C4.38772 9.49992 4.59968 9.41212 4.75596 9.25584C4.91224 9.09956 5.00004 8.8876 5.00004 8.66659V5.33325C5.00004 5.11224 5.08784 4.90028 5.24412 4.744C5.4004 4.58772 5.61236 4.49992 5.83337 4.49992H9.16671C9.38772 4.49992 9.59968 4.41212 9.75596 4.25584C9.91224 4.09956 10 3.8876 10 3.66659C10 3.44557 9.91224 3.23361 9.75596 3.07733C9.59968 2.92105 9.38772 2.83325 9.16671 2.83325H5.83337C5.17033 2.83325 4.53445 3.09664 4.06561 3.56549C3.59677 4.03433 3.33337 4.67021 3.33337 5.33325V8.66659C3.33337 8.8876 3.42117 9.09956 3.57745 9.25584C3.73373 9.41212 3.94569 9.49992 4.16671 9.49992ZM10.8334 6.16659H7.50004C7.27903 6.16659 7.06707 6.25438 6.91079 6.41066C6.75451 6.56694 6.66671 6.77891 6.66671 6.99992V10.3333C6.66671 10.5543 6.75451 10.7662 6.91079 10.9225C7.06707 11.0788 7.27903 11.1666 7.50004 11.1666H10.8334C11.0544 11.1666 11.2663 11.0788 11.4226 10.9225C11.5789 10.7662 11.6667 10.5543 11.6667 10.3333V6.99992C11.6667 6.77891 11.5789 6.56694 11.4226 6.41066C11.2663 6.25438 11.0544 6.16659 10.8334 6.16659ZM10 9.49992H8.33337V7.83325H10V9.49992ZM14.1667 11.1666H17.5C17.7211 11.1666 17.933 11.0788 18.0893 10.9225C18.2456 10.7662 18.3334 10.5543 18.3334 10.3333V6.99992C18.3334 6.77891 18.2456 6.56694 18.0893 6.41066C17.933 6.25438 17.7211 6.16659 17.5 6.16659H14.1667C13.9457 6.16659 13.7337 6.25438 13.5775 6.41066C13.4212 6.56694 13.3334 6.77891 13.3334 6.99992V10.3333C13.3334 10.5543 13.4212 10.7662 13.5775 10.9225C13.7337 11.0788 13.9457 11.1666 14.1667 11.1666ZM15 7.83325H16.6667V9.49992H15V7.83325ZM10.8334 12.8333H7.50004C7.27903 12.8333 7.06707 12.9211 6.91079 13.0773C6.75451 13.2336 6.66671 13.4456 6.66671 13.6666V16.9999C6.66671 17.2209 6.75451 17.4329 6.91079 17.5892C7.06707 17.7455 7.27903 17.8333 7.50004 17.8333H10.8334C11.0544 17.8333 11.2663 17.7455 11.4226 17.5892C11.5789 17.4329 11.6667 17.2209 11.6667 16.9999V13.6666C11.6667 13.4456 11.5789 13.2336 11.4226 13.0773C11.2663 12.9211 11.0544 12.8333 10.8334 12.8333ZM10 16.1666H8.33337V14.4999H10V16.1666ZM14.1667 15.3333C14.3877 15.3333 14.5997 15.2455 14.756 15.0892C14.9122 14.9329 15 14.7209 15 14.4999C15.2211 14.4999 15.433 14.4121 15.5893 14.2558C15.7456 14.0996 15.8334 13.8876 15.8334 13.6666C15.8334 13.4456 15.7456 13.2336 15.5893 13.0773C15.433 12.9211 15.2211 12.8333 15 12.8333H14.1667C13.9457 12.8333 13.7337 12.9211 13.5775 13.0773C13.4212 13.2336 13.3334 13.4456 13.3334 13.6666V14.4999C13.3334 14.7209 13.4212 14.9329 13.5775 15.0892C13.7337 15.2455 13.9457 15.3333 14.1667 15.3333ZM17.5 12.8333C17.279 12.8333 17.0671 12.9211 16.9108 13.0773C16.7545 13.2336 16.6667 13.4456 16.6667 13.6666V16.1666C16.4457 16.1666 16.2337 16.2544 16.0775 16.4107C15.9212 16.5669 15.8334 16.7789 15.8334 16.9999C15.8334 17.2209 15.9212 17.4329 16.0775 17.5892C16.2337 17.7455 16.4457 17.8333 16.6667 17.8333H17.5C17.7211 17.8333 17.933 17.7455 18.0893 17.5892C18.2456 17.4329 18.3334 17.2209 18.3334 16.9999V13.6666C18.3334 13.4456 18.2456 13.2336 18.0893 13.0773C17.933 12.9211 17.7211 12.8333 17.5 12.8333ZM14.1667 16.1666C14.0019 16.1666 13.8408 16.2155 13.7037 16.307C13.5667 16.3986 13.4599 16.5287 13.3968 16.681C13.3337 16.8333 13.3172 17.0008 13.3494 17.1625C13.3815 17.3241 13.4609 17.4726 13.5775 17.5892C13.694 17.7057 13.8425 17.7851 14.0041 17.8172C14.1658 17.8494 14.3333 17.8329 14.4856 17.7698C14.6379 17.7067 14.768 17.5999 14.8596 17.4629C14.9512 17.3259 15 17.1647 15 16.9999C15 16.7789 14.9122 16.5669 14.756 16.4107C14.5997 16.2544 14.3877 16.1666 14.1667 16.1666Z"
    fill="#8B9099" fill-opacity="0.7" />
</svg>
  